<?xml version="1.0" encoding="utf-8"?>
<!-- Generator: Adobe Illustrator 23.0.3, SVG Export Plug-In . SVG Version: 6.00 Build 0)  -->
<svg version="1.1" id="Capa_1" xmlns="http://www.w3.org/2000/svg" xmlns:xlink="http://www.w3.org/1999/xlink" x="0px" y="0px"
	 viewBox="0 0 116.22 42.52" style="enable-background:new 0 0 116.22 42.52;" xml:space="preserve">
<style type="text/css">
	.st0{fill:#FFFFFF;}
	.st1{fill:#882D6F;}
	.st2{fill:#318E9D;}
	.st3{fill:#A0578D;}
</style>
<g>
	<path class="st0" d="M116.82,29.87c0-0.97-0.33-1.85-0.96-2.54l-0.01-0.01c-0.68-0.74-1.62-1.15-2.65-1.15h-0.84
		c-0.33,0-0.44-0.09-0.55-0.2c-0.08-0.09-0.27-0.29-0.27-0.89v-5.77h1c1,0,1.89-0.35,2.56-1.03c0.66-0.66,1.03-1.55,1.03-2.5
		c0-0.97-0.37-1.86-1.03-2.53c-0.67-0.67-1.56-1.03-2.56-1.03h-1v-2.3c0-1-0.38-1.94-1.08-2.64c-0.69-0.69-1.63-1.07-2.63-1.07
		c-1.03,0-1.97,0.4-2.66,1.12c-0.66,0.7-1.01,1.59-1.01,2.59v1.51h-2.16c0.43-0.67,0.66-1.43,0.66-2.26c0-1.18-0.46-2.25-1.29-3.03
		c-0.79-0.75-1.79-1.14-2.89-1.14c-1.12,0-2.13,0.4-2.92,1.14c-0.83,0.78-1.29,1.85-1.29,3.03c0,0.83,0.22,1.59,0.65,2.26h-1.19
		C90.22,4.81,83.26,0.28,75.24,0.28c-6.64,0-12.74,3.06-16.76,8.38l-2.1,2.78H26.65v-3.4c0-1.01-0.38-1.94-1.06-2.62
		c-0.68-0.68-1.61-1.06-2.62-1.06c-0.98,0-1.87,0.35-2.56,1.01c-0.72,0.69-1.12,1.63-1.12,2.66v3.4h-8.9l-0.02,0.06
		c-1.68,0.12-3.24,0.58-4.64,1.42c-1.63,0.98-2.91,2.34-3.83,4.04c-0.9,1.67-1.35,3.56-1.35,5.62c0,2.03,0.48,3.92,1.42,5.6
		c0.95,1.7,2.27,3.05,3.93,4.03c1.33,0.78,2.8,1.24,4.39,1.4l0.03,0.1h47.64l2.72,2.63c3.94,3.79,9.1,5.88,14.55,5.88
		c6.98,0,13.15-3.44,16.96-8.7l21.05,0.05l-0.03-0.06c0.92-0.05,1.75-0.37,2.4-0.98C116.4,31.86,116.82,30.9,116.82,29.87z"/>
	<g>
		<path class="st1" d="M75.24,2.78c-6.04,0-11.39,2.91-14.76,7.39c0.96,0.14,1.89,0.39,2.77,0.74c2.9-3.35,7.18-5.48,11.96-5.48
			c8.74,0,15.83,7.09,15.83,15.83s-7.09,15.83-15.83,15.83c-3.87,0-7.42-1.4-10.17-3.71c-0.82,0.49-1.69,0.9-2.62,1.19
			c3.32,3.2,7.84,5.18,12.82,5.18c10.21,0,18.48-8.28,18.48-18.48C93.72,11.05,85.45,2.78,75.24,2.78z"/>
		<g>
			<g>
				<path class="st2" d="M97.32,10.4c-0.32-0.33-0.48-0.73-0.48-1.21c0-0.5,0.17-0.9,0.5-1.21c0.33-0.31,0.73-0.46,1.21-0.46
					c0.45,0,0.85,0.15,1.18,0.46c0.33,0.31,0.5,0.71,0.5,1.21c0,0.48-0.17,0.88-0.5,1.21c-0.33,0.33-0.73,0.5-1.21,0.5
					S97.64,10.73,97.32,10.4z M97.68,30.71c-0.23-0.23-0.34-0.52-0.34-0.87V15.32c0-0.35,0.11-0.64,0.34-0.87
					c0.23-0.23,0.52-0.34,0.87-0.34s0.64,0.11,0.85,0.34c0.22,0.23,0.33,0.52,0.33,0.87v14.52c0,0.35-0.11,0.64-0.33,0.87
					c-0.22,0.23-0.5,0.34-0.85,0.34S97.9,30.94,97.68,30.71z"/>
				<path class="st2" d="M114.06,29.01c0.21,0.23,0.31,0.52,0.31,0.87c0,0.33-0.12,0.61-0.37,0.84c-0.25,0.23-0.56,0.34-0.93,0.34
					h-0.65c-1.09,0-2.07-0.26-2.94-0.79c-0.87-0.53-1.54-1.24-2.03-2.14c-0.48-0.9-0.73-1.91-0.73-3.05v-8.27h-2.01
					c-0.33,0-0.59-0.1-0.79-0.29c-0.2-0.2-0.29-0.44-0.29-0.73c0-0.31,0.1-0.56,0.29-0.76c0.2-0.2,0.46-0.29,0.79-0.29h2.01v-4.8
					c0-0.35,0.11-0.64,0.33-0.87c0.22-0.23,0.5-0.34,0.85-0.34s0.64,0.11,0.87,0.34c0.23,0.23,0.34,0.52,0.34,0.87v4.8h3.5
					c0.33,0,0.59,0.1,0.79,0.29c0.2,0.2,0.29,0.45,0.29,0.76c0,0.29-0.1,0.53-0.29,0.73c-0.2,0.2-0.46,0.29-0.79,0.29h-3.5v8.27
					c0,1.05,0.31,1.92,0.93,2.59c0.62,0.67,1.41,1.01,2.38,1.01h0.84C113.58,28.67,113.85,28.78,114.06,29.01z"/>
			</g>
		</g>
		<path class="st1" d="M82.8,29.35l-5.67-6.98c0.19-0.33,0.31-0.7,0.31-1.11c0-0.25-0.05-0.48-0.13-0.71l5.24-4.74
			c0.27-0.23,0.4-0.48,0.4-0.77c0-0.23-0.11-0.47-0.34-0.74c-0.21-0.25-0.46-0.37-0.77-0.37c-0.27,0-0.52,0.1-0.74,0.31l-5.39,4.88
			c-0.15-0.03-0.3-0.05-0.46-0.05c-1.21,0-2.2,0.98-2.2,2.2c0,1.17,0.92,2.12,2.08,2.19l5.94,7.29c0.23,0.29,0.51,0.43,0.84,0.43
			c0.25,0,0.49-0.09,0.74-0.28c0.29-0.25,0.43-0.53,0.43-0.84C83.07,29.79,82.98,29.55,82.8,29.35z"/>
		<g>
			<path class="st3" d="M7.18,30.08c-1.28-0.75-2.29-1.79-3.02-3.1c-0.73-1.31-1.1-2.77-1.1-4.38c0-1.65,0.35-3.13,1.05-4.44
				c0.7-1.31,1.67-2.34,2.91-3.08s2.63-1.11,4.18-1.11c2.58,0,4.68,0.99,6.29,2.97c0.16,0.19,0.25,0.4,0.25,0.65
				c0,0.33-0.17,0.62-0.53,0.87c-0.19,0.12-0.38,0.19-0.59,0.19c-0.31,0-0.61-0.15-0.9-0.46c-0.62-0.68-1.3-1.19-2.04-1.53
				c-0.74-0.34-1.57-0.51-2.48-0.51c-1.14,0-2.15,0.27-3.03,0.82c-0.89,0.55-1.57,1.32-2.06,2.31c-0.48,0.99-0.73,2.11-0.73,3.34
				c0,1.22,0.26,2.32,0.77,3.3c0.52,0.98,1.24,1.75,2.17,2.31c0.93,0.56,1.99,0.84,3.19,0.84c1.65,0,2.98-0.44,3.99-1.33
				c0.27-0.23,0.55-0.34,0.84-0.34c0.25,0,0.47,0.08,0.68,0.25c0.29,0.25,0.43,0.53,0.43,0.84c0,0.27-0.1,0.5-0.31,0.68
				c-1.49,1.38-3.36,2.07-5.64,2.07C9.91,31.2,8.46,30.83,7.18,30.08z"/>
			<path class="st3" d="M22.99,29.55c-0.8-1-1.19-2.29-1.19-3.85V8.04c0-0.35,0.11-0.64,0.34-0.85c0.23-0.22,0.51-0.33,0.84-0.33
				c0.35,0,0.63,0.11,0.85,0.33c0.22,0.22,0.33,0.5,0.33,0.85v17.65c0,0.89,0.18,1.61,0.54,2.17c0.36,0.56,0.82,0.84,1.38,0.84h0.77
				c0.31,0,0.56,0.11,0.74,0.33c0.19,0.22,0.28,0.5,0.28,0.85c0,0.35-0.13,0.63-0.39,0.85c-0.26,0.22-0.59,0.33-1.01,0.33h-0.4
				C24.81,31.05,23.78,30.55,22.99,29.55z"/>
			<path class="st3" d="M33.89,30.09c-1.31-0.74-2.34-1.77-3.08-3.08c-0.74-1.31-1.11-2.78-1.11-4.41c0-1.63,0.37-3.11,1.11-4.43
				c0.74-1.32,1.77-2.35,3.08-3.1c1.31-0.74,2.78-1.11,4.41-1.11c1.63,0,3.1,0.37,4.4,1.11c1.3,0.74,2.33,1.78,3.08,3.1
				c0.75,1.32,1.13,2.8,1.13,4.43c0,1.63-0.37,3.1-1.11,4.41c-0.74,1.31-1.77,2.34-3.08,3.08c-1.31,0.74-2.78,1.11-4.41,1.11
				C36.67,31.2,35.2,30.83,33.89,30.09z M41.52,28.2c0.95-0.56,1.69-1.33,2.23-2.31c0.54-0.98,0.81-2.08,0.81-3.3
				c0-1.24-0.27-2.35-0.81-3.33c-0.54-0.98-1.28-1.75-2.23-2.31c-0.95-0.56-2.02-0.84-3.22-0.84c-1.18,0-2.24,0.28-3.2,0.84
				c-0.96,0.56-1.71,1.33-2.26,2.31c-0.55,0.98-0.82,2.09-0.82,3.33c0,1.22,0.27,2.32,0.82,3.3c0.55,0.98,1.3,1.75,2.26,2.31
				c0.96,0.56,2.03,0.84,3.2,0.84C39.5,29.04,40.57,28.76,41.52,28.2z"/>
			<path class="st3" d="M54.77,30.08c-1.28-0.75-2.29-1.79-3.02-3.1c-0.73-1.31-1.1-2.77-1.1-4.38c0-1.65,0.35-3.13,1.05-4.44
				c0.7-1.31,1.67-2.34,2.91-3.08c1.24-0.74,2.63-1.11,4.18-1.11c2.58,0,4.68,0.99,6.29,2.97c0.16,0.19,0.25,0.4,0.25,0.65
				c0,0.33-0.17,0.62-0.53,0.87c-0.19,0.12-0.38,0.19-0.59,0.19c-0.31,0-0.61-0.15-0.9-0.46c-0.62-0.68-1.3-1.19-2.04-1.53
				s-1.57-0.51-2.48-0.51c-1.14,0-2.15,0.27-3.04,0.82c-0.89,0.55-1.57,1.32-2.06,2.31c-0.49,0.99-0.73,2.11-0.73,3.34
				c0,1.22,0.26,2.32,0.77,3.3c0.52,0.98,1.24,1.75,2.17,2.31c0.93,0.56,1.99,0.84,3.19,0.84c1.65,0,2.98-0.44,3.99-1.33
				c0.27-0.23,0.55-0.34,0.84-0.34c0.25,0,0.48,0.08,0.68,0.25c0.29,0.25,0.43,0.53,0.43,0.84c0,0.27-0.1,0.5-0.31,0.68
				c-1.49,1.38-3.37,2.07-5.64,2.07C57.5,31.2,56.05,30.83,54.77,30.08z"/>
			<path class="st3" d="M71.18,6.87c-0.35,0-0.63,0.11-0.85,0.33c-0.22,0.22-0.33,0.5-0.33,0.85v21.83c0,0.35,0.11,0.63,0.33,0.85
				c0.22,0.22,0.5,0.33,0.85,0.33c0.35,0,0.63-0.11,0.85-0.33c0.22-0.22,0.33-0.5,0.33-0.85v-4.86v-2.88V8.04
				c0-0.35-0.11-0.64-0.33-0.85C71.82,6.98,71.53,6.87,71.18,6.87z"/>
		</g>
	</g>
</g>
</svg>
